<svg xmlns="http://www.w3.org/2000/svg" version="1.1" xmlns:xlink="http://www.w3.org/1999/xlink" xmlns:svgjs="http://svgjs.dev/svgjs" width="1000" height="1000" viewBox="0 0 1000 1000"><rect width="1000" height="1000" fill="#000000"></rect><g transform="matrix(0.7,0,0,0.7,149.57575757575756,282.1265587044535)"><svg viewBox="0 0 396 247" data-background-color="#97978d" preserveAspectRatio="xMidYMid meet" height="623" width="1000" xmlns="http://www.w3.org/2000/svg" xmlns:xlink="http://www.w3.org/1999/xlink"><g id="tight-bounds" transform="matrix(1,0,0,1,0.2400000000000091,-0.09999999999999432)"><svg viewBox="0 0 395.52 247.2" height="247.2" width="395.52"><g><svg></svg></g><g><svg viewBox="0 0 395.52 247.2" height="247.2" width="395.52"><g transform="matrix(1,0,0,1,109.61699247434436,47.215199999999996)"><svg viewBox="0 0 176.28601505131127 152.7696" height="152.7696" width="176.28601505131127"><g><svg viewBox="0 0 176.28601505131127 152.7696" height="152.7696" width="176.28601505131127"><g><svg viewBox="0 0 176.28601505131127 152.7696" height="152.7696" width="176.28601505131127"><g><svg viewBox="0 0 176.28601505131127 152.7696" height="152.7696" width="176.28601505131127"><g><svg viewBox="0 0 176.28601505131127 152.7696" height="152.7696" width="176.28601505131127"><g><svg viewBox="0 0 176.28601505131127 152.7696" height="152.7696" width="176.28601505131127"><g transform="matrix(1,0,0,1,0,0)"><svg width="176.28601505131127" viewBox="0.24000000953674316 -37.0099983215332 49.41999816894531 42.81999969482422" height="152.7696" data-palette-color="#ffffff"><path d="M2-29.59L2-37.01 15.99-37.01 15.99-29.59 13.4-29.59 13.4-4.2Q12.87-2.22 11.84-0.57 10.82 1.07 9.83 2.42 8.84 3.76 7.06 5.81L7.06 5.81 0.24 5.44Q1.68 3.25 2.5 1.82 3.32 0.39 4.15-1.33 4.98-3.05 5.44-5L5.44-5 5.44-29.59 2-29.59ZM19.5-30.3L19.5-37.01 36.59-37.01Q39.45-37.01 41.84-36.12 44.24-35.23 45.97-33.72 47.7-32.2 48.68-30.22 49.66-28.25 49.66-26.1L49.66-26.1Q49.66-23.51 48.89-21.25 48.12-18.99 46.51-17.33 44.89-15.67 42.43-14.71 39.96-13.75 36.59-13.75L36.59-13.75 31.44-13.75 31.44-6.69 34.84-6.69 34.84 0 19.5 0 19.5-6.69 23.34-6.69 23.34-30.3 19.5-30.3ZM34.79-30.3L31.44-30.3 31.44-20.36 34.79-20.36Q37.57-20.36 39.21-21.53 40.84-22.71 40.84-25.24L40.84-25.24Q40.84-27.61 39.3-28.96 37.77-30.3 34.79-30.3L34.79-30.3Z" opacity="1" transform="matrix(1,0,0,1,0,0)" fill="#ffffff" class="undefined-text-0" data-fill-palette-color="primary" id="text-0"></path></svg></g></svg></g></svg></g></svg></g></svg></g></svg></g></svg></g><path d="M291.918 41.215L291.918 0 44.718 0 44.718 247.2 291.918 247.2 291.918 205.985 278.141 205.985 278.141 233.423 58.495 233.423 58.495 13.777 278.141 13.777 278.141 41.215Z" fill="#ffffff" stroke="transparent" data-fill-palette-color="primary"></path></svg></g><defs></defs></svg><rect width="395.52" height="247.2" fill="none" stroke="none" visibility="hidden"></rect></g></svg></g></svg>